<?xml version="1.0" standalone="no"?>
<!DOCTYPE svg PUBLIC "-//W3C//DTD SVG 20010904//EN"
 "http://www.w3.org/TR/2001/REC-SVG-20010904/DTD/svg10.dtd">
<svg version="1.0" xmlns="http://www.w3.org/2000/svg"
 width="601.000000pt" height="601.000000pt" viewBox="0 0 601.000000 601.000000"
 preserveAspectRatio="xMidYMid meet">
<metadata>
Created by potrace 1.11, written by Peter Selinger 2001-2013
</metadata>
<g transform="translate(0.000000,601.000000) scale(0.100000,-0.100000)"
fill="#000000" stroke="none">
<path d="M2694 5108 c-75 -60 -192 -207 -297 -373 -66 -106 -121 -220 -113
-234 4 -6 96 -9 226 -9 l220 1 0 318 c0 176 -2 319 -4 319 -2 0 -16 -10 -32
-22z"/>
<path d="M3275 4806 l0 -314 227 1 c126 0 228 2 228 5 0 19 -91 186 -149 275
-120 182 -260 347 -294 347 -9 0 -12 -71 -12 -314z"/>
<path d="M1863 5035 c-211 -109 -467 -297 -607 -445 -42 -46 -75 -84 -74 -86
2 -2 117 -5 255 -7 l251 -4 28 61 c92 202 116 251 170 341 33 55 68 118 78
140 10 22 21 43 23 48 10 16 -22 4 -124 -48z"/>
<path d="M4026 5068 c7 -27 42 -91 107 -199 25 -43 57 -101 70 -130 14 -30 44
-94 66 -144 23 -49 47 -92 52 -96 6 -4 88 -5 183 -3 94 2 204 3 244 4 88 0 88
1 -20 109 -173 175 -503 402 -682 471 -26 9 -27 9 -20 -12z"/>
<path d="M853 3968 c-45 -12 -74 -55 -126 -188 -90 -230 -144 -449 -151 -610
l-1 -25 403 0 c222 0 405 2 407 5 1 3 6 43 9 90 4 47 14 135 22 195 9 61 17
124 19 140 3 17 18 95 34 175 16 80 31 161 33 180 l3 35 -250 2 c-137 1 -277
4 -310 6 -33 2 -74 0 -92 -5z"/>
<path d="M5057 3974 c-2 -3 -127 -5 -277 -6 -205 -2 -273 -5 -277 -15 -6 -14
8 -101 37 -238 12 -55 23 -113 26 -130 2 -16 6 -39 8 -51 9 -46 21 -153 31
-279 4 -44 8 -87 11 -95 3 -14 53 -16 410 -15 l405 0 -6 70 c-14 148 -63 342
-132 525 -73 193 -101 229 -181 235 -28 1 -53 1 -55 -1z"/>
<path d="M2068 3962 c-36 -3 -37 -4 -57 -70 -24 -80 -58 -222 -66 -277 -4 -22
-8 -47 -10 -55 -2 -8 -7 -37 -10 -65 -4 -27 -8 -57 -10 -65 -4 -17 -14 -135
-19 -227 l-4 -63 392 5 c215 2 398 4 407 4 13 1 15 46 14 400 0 220 -4 403 -9
408 -7 7 -546 12 -628 5z"/>
<path d="M3317 3959 c-16 -9 -17 -42 -17 -409 l0 -400 23 -1 c12 0 195 -2 406
-5 l384 -4 -7 108 c-4 59 -8 119 -10 133 -4 20 -13 90 -22 159 -15 119 -92
420 -108 421 -96 7 -636 5 -649 -2z"/>
<path d="M576 2568 c4 -48 15 -121 30 -203 18 -103 108 -367 170 -502 l29 -63
90 0 c49 -1 205 -2 347 -4 231 -4 257 -2 260 13 4 13 -27 184 -57 315 -4 17
-13 81 -30 211 -4 29 -8 66 -21 200 -3 33 -7 65 -8 70 -2 7 -146 11 -409 13
l-405 2 4 -52z"/>
<path d="M1925 2523 c4 -97 6 -120 26 -238 17 -101 28 -154 69 -325 11 -47 23
-100 27 -118 3 -18 10 -35 15 -38 8 -5 445 -8 623 -5 l40 1 3 410 3 410 -405
0 -405 0 4 -97z"/>
<path d="M3277 2218 c1 -222 2 -407 2 -413 1 -8 494 -12 652 -6 12 1 22 25 40
99 12 53 24 102 25 107 2 6 19 84 37 175 36 173 48 261 52 373 l2 67 -406 0
-406 0 2 -402z"/>
<path d="M4615 2595 c-3 -11 -7 -49 -9 -85 -4 -61 -22 -215 -31 -270 -2 -14
-9 -56 -15 -95 -6 -38 -17 -95 -25 -125 -15 -61 -22 -100 -31 -176 l-6 -52
253 4 c140 2 297 4 351 4 l96 0 31 66 c99 212 178 485 197 682 l7 73 -407 -3
c-398 -3 -407 -3 -411 -23z"/>
<path d="M1190 1260 c0 -41 288 -303 389 -355 36 -18 152 -25 237 -15 l41 5
-39 85 c-129 280 -129 280 -162 281 -159 5 -466 5 -466 -1z"/>
<path d="M2280 1258 c0 -14 80 -172 112 -223 14 -22 44 -64 67 -92 l41 -53
110 0 c61 0 110 3 111 8 0 4 2 88 4 188 l4 181 -225 0 c-143 1 -224 -3 -224
-9z"/>
<path d="M3276 1261 c-1 -3 -2 -44 0 -91 1 -47 3 -129 4 -182 l2 -98 110 0
c108 0 111 1 135 28 61 69 155 228 192 325 l9 24 -224 0 c-123 0 -226 -2 -228
-6z"/>
<path d="M4338 1262 c-16 -2 -28 -7 -28 -12 0 -4 -30 -70 -66 -146 -77 -162
-96 -206 -91 -211 2 -2 46 -5 98 -7 160 -6 191 9 391 188 87 77 168 167 168
186 0 6 -417 8 -472 2z"/>
</g>
</svg>
